<?xml version="1.0" encoding="utf-8"?><svg width="60" height="60" fill="none" xmlns="http://www.w3.org/2000/svg" viewBox="0 0 60 60"><path d="M51 50.7V15.75L29.25 9 7.5 15.75V50.7H12V22.35h34.5V50.7H51zM26.4 18h5.7M17.1 18h5.7M35.7 18h5.55" stroke="#05141F" stroke-width="2" stroke-miterlimit="10" stroke-linecap="round" stroke-linejoin="round"/><path d="M40.5 43.35H33v7.5h7.5v-7.5zM40.5 35.85H33v7.5h7.5v-7.5zM33 43.35h-7.5v7.5H33v-7.5zM33 35.85h-7.5v7.5H33v-7.5zM25.5 43.35H18v7.5h7.5v-7.5zM33 28.35h-7.5v7.5H33v-7.5z" stroke="#05141F" stroke-width="2" stroke-miterlimit="10" stroke-linecap="round" stroke-linejoin="round"/></svg>