<?xml version="1.0" encoding="utf-8"?><svg width="60" height="60" fill="none" xmlns="http://www.w3.org/2000/svg" viewBox="0 0 60 60"><path d="M37.65 18H21M37.65 24H21M37.65 30H21M31.5 36H21M39 44.25c0 1.2-1.05 2.25-2.25 2.25s-2.25-1.05-2.25-2.25S35.55 42 36.75 42 39 43.05 39 44.25z" stroke="#05141F" stroke-width="2" stroke-miterlimit="10" stroke-linecap="round" stroke-linejoin="round"/><path d="M45 13.5c0-2.4-1.95-4.5-4.35-4.5h-22.8c-2.4 0-4.35 1.95-4.35 4.5V48c0 2.4 1.95 4.5 4.35 4.5h22.8c2.4 0 4.35-1.95 4.35-4.5V13.5v0z" stroke="#05141F" stroke-width="2" stroke-miterlimit="10" stroke-linecap="round" stroke-linejoin="round"/></svg>