<?xml version="1.0" encoding="utf-8"?><svg width="60" height="60" fill="none" xmlns="http://www.w3.org/2000/svg" viewBox="0 0 60 60"><path d="M38.851 36.038l-4.375-3.87" stroke="#05141F" stroke-width="2" stroke-linecap="round" stroke-linejoin="round"/><path d="M34.812 38.394l-3.702-3.029" stroke="#05141F" stroke-width="2" stroke-miterlimit="10" stroke-linecap="round" stroke-linejoin="round"/><path d="M14.788 30.316c1.346 3.702 11.779 11.947 11.779 11.947 2.524 2.187 4.88-1.178 2.692-2.86l-1.683-1.515M27.745 37.89l4.375 3.701c2.524 2.188 4.88-1.346 2.86-3.029l1.178 1.01c2.188 1.85 5.048-1.515 2.86-3.365l.17.168c2.187 1.85 5.047-1.515 2.86-3.365l-10.77-8.75s-2.019.84-2.86.504c0 0-3.029 4.712-5.385 3.03-2.187-1.684 0-8.75 6.394-9.76 0 0 2.861-.842 9.928 2.86l2.524-.841" stroke="#05141F" stroke-width="2" stroke-linecap="round" stroke-linejoin="round"/><path d="M10.494 16.64L6 32.509l7.61 2.155 4.493-15.867-7.61-2.155zM49.506 17.088l-7.61 2.155L46.39 35.11 54 32.955l-4.494-15.867zM17.65 19.885s.336-.673 8.413-.841M42.72 33.85s2.02.506 3.03-.672" stroke="#05141F" stroke-width="2" stroke-linecap="round" stroke-linejoin="round"/></svg>