<?xml version="1.0" encoding="utf-8"?><svg width="60" height="60" fill="none" xmlns="http://www.w3.org/2000/svg" viewBox="0 0 60 60"><path d="M51 51.15V30.9C51 18.75 41.25 9 29.25 9 17.4 9 7.5 18.9 7.5 30.9v20.25" stroke="#05141F" stroke-width="2" stroke-linecap="round" stroke-linejoin="round"/><path d="M17.25 30.45H13.2c-.45 0-.9.45-.9.9v1.05c0 .9 1.05.9 2.1 1.05-.45.75-1.05 7.05-1.05 7.05v8.7c0 .9.75 1.5 1.65 1.5h3c.9 0 1.65-.75 1.65-1.5v-3H39v3c0 .9.75 1.5 1.65 1.5h3.15c.9 0 1.65-.75 1.65-1.5v-8.7s-.6-6.3-1.05-7.05c.9-.15 2.1-.15 2.1-1.05v-1.05c0-.45-.45-.9-.9-.9h-4.05" stroke="#05141F" stroke-width="2" stroke-linecap="round" stroke-linejoin="round"/><path d="M41.4 30.3c0 1.65-1.95 2.55-3.9 2.55H21.15c-1.95 0-3.9-.9-3.9-2.55l1.5-5.25c.3-1.5 1.5-2.85 3.45-2.85h14.1c1.95 0 3.15 1.2 3.45 2.85l1.65 5.25zM25.5 42H33M25.5 39H33M41.85 40.65c0 1.2-.9 2.1-2.1 2.1-1.2 0-2.1-.9-2.1-2.1 0-1.2.9-2.1 2.1-2.1 1.05 0 2.1.9 2.1 2.1zM21.15 40.65c0 1.2-.9 2.1-2.1 2.1-1.2 0-2.1-.9-2.1-2.1 0-1.2.9-2.1 2.1-2.1 1.05 0 2.1.9 2.1 2.1zM27.3 25.35h3.9M45.15 46.35h-31.8" stroke="#05141F" stroke-width="2" stroke-linecap="round" stroke-linejoin="round"/></svg>