<?xml version="1.0" encoding="utf-8"?><svg width="60" height="60" fill="none" xmlns="http://www.w3.org/2000/svg" viewBox="0 0 60 60"><path d="M31.05 23.7c-3.9-.3-7.05-3.45-7.05-7.35C24 12.3 27.3 9 31.35 9s7.35 3.3 7.35 7.35c0 1.65-.6 3.45-1.5 4.65" stroke="#05141F" stroke-width="2" stroke-miterlimit="10" stroke-linecap="round" stroke-linejoin="round"/><path d="M44.25 28.35c0 4.05-3.3 7.35-7.35 7.35s-7.35-3.3-7.35-7.35S32.85 21 36.9 21c4.05-.15 7.35 3.3 7.35 7.35z" stroke="#05141F" stroke-width="2" stroke-miterlimit="10" stroke-linecap="round" stroke-linejoin="round"/><path d="M16.5 40.95c3.9-.6 9.15-1.05 12.3 0l10.35 3.3c3 .9 1.65 5.7-1.35 4.8L27 45.6" stroke="#05141F" stroke-width="2" stroke-linecap="round" stroke-linejoin="round"/><path d="M40.5 45.45l8.1-3.9c2.85-1.5 4.8 3.15 1.95 4.5-12.15 6-11.25 6-16.05 6-2.85 0-6.9-.45-12.3-3-1.05-.6-3.45-.15-5.7.45M16.5 38.7H9v13.5h7.5V38.7z" stroke="#05141F" stroke-width="2" stroke-linecap="round" stroke-linejoin="round"/></svg>