<?xml version="1.0" encoding="utf-8"?><svg width="89" height="21" fill="none" xmlns="http://www.w3.org/2000/svg" viewBox="0 0 89 21"><g clip-path="url(#mclip0_0_401)"><path d="M51.887 18.276c0 .169.044.259.145.259a.445.445 0 00.222-.079L79.822 1.094c.49-.314.923-.483 1.59-.483h6.064c.934 0 1.557.607 1.557 1.517v11.204c0 1.348-.3 2.135-1.557 2.865l-7.354 4.27a.412.412 0 01-.245.09c-.088 0-.166-.056-.166-.303V7.162c0-.146-.045-.258-.156-.258-.078 0-.134.034-.212.079L59.186 19.67c-.567.36-1.024.46-1.546.46H44.266c-.923 0-1.557-.607-1.557-1.505V2.476c0-.112-.056-.213-.145-.213a.426.426 0 00-.222.067l-13.295 7.743c-.133.079-.166.157-.166.213 0 .056.022.101.122.191l9.49 9.193c.122.123.21.224.21.314 0 .101-.133.157-.3.157h-8.588c-.668 0-1.19-.1-1.558-.449l-5.762-5.585c-.067-.067-.111-.09-.167-.09a.495.495 0 00-.19.056l-9.622 5.619c-.579.337-.98.438-1.558.438H2.091c-.934 0-1.557-.607-1.557-1.505V7.623c0-1.37.3-2.135 1.557-2.865L9.49.454a.363.363 0 01.2-.057c.1 0 .167.113.167.349v14.72c0 .147.044.226.155.226.056 0 .134-.046.212-.09L35.21 1.049c.59-.348.956-.45 1.646-.45h13.45c.935 0 1.558.608 1.558 1.507l.022 16.17z" fill="#fff"/></g><defs><clipPath id="mclip0_0_401"><path fill="#fff" transform="translate(0 .386)" d="M0 0h89v20.227H0z"/></clipPath></defs></svg>