<?xml version="1.0" encoding="utf-8"?><svg width="264" height="60" fill="none" xmlns="http://www.w3.org/2000/svg" viewBox="0 0 264 60"><g clip-path="url(#lclip0_202_34)"><path d="M153.912 53.067c0 .5.132.767.429.767.231 0 .429-.1.66-.234l81.774-51.5c1.452-.933 2.739-1.433 4.719-1.433h17.985c2.772 0 4.62 1.8 4.62 4.5V38.4c0 4-.891 6.333-4.62 8.5l-21.813 12.667c-.264.2-.528.267-.726.267-.264 0-.495-.167-.495-.9V20.1c0-.433-.132-.767-.462-.767-.231 0-.396.1-.627.234L175.56 57.2c-1.683 1.067-3.036 1.367-4.587 1.367h-39.666c-2.739 0-4.62-1.8-4.62-4.467V6.2c0-.333-.165-.633-.429-.633-.231 0-.429.066-.66.2L86.163 28.733c-.396.234-.495.467-.495.634 0 .166.066.3.363.566L114.18 57.2c.363.367.627.667.627.933 0 .3-.396.467-.891.467H88.44c-1.98 0-3.531-.3-4.62-1.333L66.726 40.7c-.198-.2-.33-.267-.495-.267a1.473 1.473 0 00-.56.167L37.124 57.267c-1.716 1-2.904 1.3-4.62 1.3H6.204c-2.772 0-4.62-1.8-4.62-4.467V21.467c0-4.067.891-6.333 4.62-8.5L28.149.2c.231-.133.396-.167.594-.167.297 0 .495.334.495 1.034v43.666c0 .434.132.667.462.667.165 0 .396-.133.627-.267l74.118-43.166c1.749-1.034 2.838-1.334 4.884-1.334h39.897c2.772 0 4.62 1.8 4.62 4.467l.066 47.967z" fill="#05141F"/></g><defs><clipPath id="lclip0_202_34"><path fill="#fff" d="M0 0h264v60H0z"/></clipPath></defs></svg>