<?xml version="1.0" encoding="utf-8"?><svg width="28" height="29" fill="none" xmlns="http://www.w3.org/2000/svg" viewBox="0 0 28 29"><path d="M20.54 27.702a2.588 2.588 0 01-1.218-.32l-4.871-2.71a1.125 1.125 0 00-1.08 0l-4.842 2.71a2.466 2.466 0 01-2.68-.152 2.36 2.36 0 01-.883-1.08 2.588 2.588 0 01-.182-1.401l.974-5.983a1.066 1.066 0 000-.533.898.898 0 00-.274-.441l-4.232-4.309a2.39 2.39 0 01-.655-1.218 2.466 2.466 0 010-1.37c.165-.444.456-.83.837-1.111.357-.299.789-.494 1.249-.563L8.3 8.353c.197-.02.385-.087.548-.198a1.08 1.08 0 00.38-.441l2.437-5.237c.207-.438.534-.807.944-1.066.389-.257.842-.4 1.309-.411.48 0 .95.137 1.355.396.408.255.732.626.928 1.065l2.451 5.237c.077.167.191.313.335.427.15.107.321.18.503.213l5.632.868c.475.058.921.26 1.28.578.36.294.63.685.775 1.127a2.542 2.542 0 01-.578 2.588l-4.217 4.308a1.34 1.34 0 00-.274.441 1.263 1.263 0 000 .533l.944 5.968c.075.473.017.958-.168 1.4-.183.439-.49.814-.883 1.081-.426.305-.937.47-1.461.472v0z" stroke="#fff"/></svg>