<?xml version="1.0" encoding="utf-8"?><svg viewBox="0 0 264 60" xmlns="http://www.w3.org/2000/svg" xmlns:xlink="http://www.w3.org/1999/xlink"><style>:root>svg{display:none}:root>svg:target{display:block}</style><svg fill="none" viewBox="0 0 18 13" id="checkmark" xmlns="http://www.w3.org/2000/svg"><path d="M17 1L6 12 1 7" stroke="#000" stroke-width="2" stroke-linecap="round" stroke-linejoin="round"/></svg><svg fill="none" viewBox="0 0 12 7" id="down" xmlns="http://www.w3.org/2000/svg"><path d="M1 1l5 5 5-5" stroke="#05141F"/></svg><svg fill="none" viewBox="0 0 31 30" id="gift" xmlns="http://www.w3.org/2000/svg"><path d="M25.5 15v12.5h-20V15M28 8.75H3V15h25V8.75zM15.5 27.5V8.75M15.5 8.75H9.875a3.125 3.125 0 010-6.25c4.375 0 5.625 6.25 5.625 6.25zM15.5 8.75h5.625a3.125 3.125 0 100-6.25C16.75 2.5 15.5 8.75 15.5 8.75z" stroke="#fff" stroke-linecap="round" stroke-linejoin="round"/></svg><svg fill="none" viewBox="0 0 60 60" id="icon_1" xmlns="http://www.w3.org/2000/svg"><path d="M47.25 51h-36c-2.1 0-3.75-1.65-3.75-3.75v-24c0-2.1 1.65-3.75 3.75-3.75h36c2.1 0 3.75 1.65 3.75 3.75v24c0 2.1-1.65 3.75-3.75 3.75zM7.5 30h18M33 30h18" stroke="#05141F" stroke-width="2" stroke-miterlimit="10" stroke-linecap="round" stroke-linejoin="round"/><path d="M33 27h-7.5v6H33v-6zM37.5 15c0-3.3-2.7-6-6-6H27c-3.3 0-6 2.7-6 6" stroke="#05141F" stroke-width="2" stroke-miterlimit="10" stroke-linecap="round" stroke-linejoin="round"/></svg><svg fill="none" viewBox="0 0 60 60" id="icon_2" xmlns="http://www.w3.org/2000/svg"><path d="M37.65 18H21M37.65 24H21M37.65 30H21M31.5 36H21M39 44.25c0 1.2-1.05 2.25-2.25 2.25s-2.25-1.05-2.25-2.25S35.55 42 36.75 42 39 43.05 39 44.25z" stroke="#05141F" stroke-width="2" stroke-miterlimit="10" stroke-linecap="round" stroke-linejoin="round"/><path d="M45 13.5c0-2.4-1.95-4.5-4.35-4.5h-22.8c-2.4 0-4.35 1.95-4.35 4.5V48c0 2.4 1.95 4.5 4.35 4.5h22.8c2.4 0 4.35-1.95 4.35-4.5V13.5v0z" stroke="#05141F" stroke-width="2" stroke-miterlimit="10" stroke-linecap="round" stroke-linejoin="round"/></svg><svg fill="none" viewBox="0 0 60 60" id="icon_3" xmlns="http://www.w3.org/2000/svg"><path d="M47.1 24.75C45 17.4 38.1 12 30 12c-8.1 0-14.85 5.4-17.1 12.75" stroke="#05141F" stroke-width="2" stroke-miterlimit="10" stroke-linecap="round" stroke-linejoin="round"/><path d="M49.5 18.45l-2.4 6.3-6.15-2.25M12.9 34.8c2.1 7.35 9 12.75 17.1 12.75 8.1 0 14.85-5.4 17.1-12.75" stroke="#05141F" stroke-width="2" stroke-miterlimit="10" stroke-linecap="round" stroke-linejoin="round"/><path d="M10.5 41.1l2.4-6.3 6.15 2.4" stroke="#05141F" stroke-width="2" stroke-miterlimit="10" stroke-linecap="round" stroke-linejoin="round"/></svg><svg fill="none" viewBox="0 0 60 60" id="icon_4" xmlns="http://www.w3.org/2000/svg"><path d="M31.05 23.7c-3.9-.3-7.05-3.45-7.05-7.35C24 12.3 27.3 9 31.35 9s7.35 3.3 7.35 7.35c0 1.65-.6 3.45-1.5 4.65" stroke="#05141F" stroke-width="2" stroke-miterlimit="10" stroke-linecap="round" stroke-linejoin="round"/><path d="M44.25 28.35c0 4.05-3.3 7.35-7.35 7.35s-7.35-3.3-7.35-7.35S32.85 21 36.9 21c4.05-.15 7.35 3.3 7.35 7.35z" stroke="#05141F" stroke-width="2" stroke-miterlimit="10" stroke-linecap="round" stroke-linejoin="round"/><path d="M16.5 40.95c3.9-.6 9.15-1.05 12.3 0l10.35 3.3c3 .9 1.65 5.7-1.35 4.8L27 45.6" stroke="#05141F" stroke-width="2" stroke-linecap="round" stroke-linejoin="round"/><path d="M40.5 45.45l8.1-3.9c2.85-1.5 4.8 3.15 1.95 4.5-12.15 6-11.25 6-16.05 6-2.85 0-6.9-.45-12.3-3-1.05-.6-3.45-.15-5.7.45M16.5 38.7H9v13.5h7.5V38.7z" stroke="#05141F" stroke-width="2" stroke-linecap="round" stroke-linejoin="round"/></svg><svg fill="none" viewBox="0 0 60 60" id="icon_5" xmlns="http://www.w3.org/2000/svg"><path d="M51 50.7V15.75L29.25 9 7.5 15.75V50.7H12V22.35h34.5V50.7H51zM26.4 18h5.7M17.1 18h5.7M35.7 18h5.55" stroke="#05141F" stroke-width="2" stroke-miterlimit="10" stroke-linecap="round" stroke-linejoin="round"/><path d="M40.5 43.35H33v7.5h7.5v-7.5zM40.5 35.85H33v7.5h7.5v-7.5zM33 43.35h-7.5v7.5H33v-7.5zM33 35.85h-7.5v7.5H33v-7.5zM25.5 43.35H18v7.5h7.5v-7.5zM33 28.35h-7.5v7.5H33v-7.5z" stroke="#05141F" stroke-width="2" stroke-miterlimit="10" stroke-linecap="round" stroke-linejoin="round"/></svg><svg fill="none" viewBox="0 0 60 60" id="icon_6" xmlns="http://www.w3.org/2000/svg"><path d="M38.851 36.038l-4.375-3.87" stroke="#05141F" stroke-width="2" stroke-linecap="round" stroke-linejoin="round"/><path d="M34.812 38.394l-3.702-3.029" stroke="#05141F" stroke-width="2" stroke-miterlimit="10" stroke-linecap="round" stroke-linejoin="round"/><path d="M14.788 30.316c1.346 3.702 11.779 11.947 11.779 11.947 2.524 2.187 4.88-1.178 2.692-2.86l-1.683-1.515M27.745 37.89l4.375 3.701c2.524 2.188 4.88-1.346 2.86-3.029l1.178 1.01c2.188 1.85 5.048-1.515 2.86-3.365l.17.168c2.187 1.85 5.047-1.515 2.86-3.365l-10.77-8.75s-2.019.84-2.86.504c0 0-3.029 4.712-5.385 3.03-2.187-1.684 0-8.75 6.394-9.76 0 0 2.861-.842 9.928 2.86l2.524-.841" stroke="#05141F" stroke-width="2" stroke-linecap="round" stroke-linejoin="round"/><path d="M10.494 16.64L6 32.509l7.61 2.155 4.493-15.867-7.61-2.155zM49.506 17.088l-7.61 2.155L46.39 35.11 54 32.955l-4.494-15.867zM17.65 19.885s.336-.673 8.413-.841M42.72 33.85s2.02.506 3.03-.672" stroke="#05141F" stroke-width="2" stroke-linecap="round" stroke-linejoin="round"/></svg><svg fill="none" viewBox="0 0 60 60" id="icon_7" xmlns="http://www.w3.org/2000/svg"><path d="M13.5 31.5h8.85M18 35.85V27M36 31.5h8.85" stroke="#05141F" stroke-width="2" stroke-linecap="round" stroke-linejoin="round"/><path d="M48 48H10.5c-1.65 0-3-1.35-3-3V19.5c0-1.65 1.35-3 3-3H48c1.65 0 3 1.35 3 3V45c0 1.65-1.35 3-3 3z" stroke="#05141F" stroke-width="2" stroke-miterlimit="10" stroke-linecap="round" stroke-linejoin="round"/><path d="M19.5 10.5H12v6h7.5v-6zM46.5 10.5H39v6h7.5v-6z" stroke="#05141F" stroke-width="2" stroke-linecap="round" stroke-linejoin="round"/></svg><svg fill="none" viewBox="0 0 60 60" id="icon_8" xmlns="http://www.w3.org/2000/svg"><path d="M51 51.15V30.9C51 18.75 41.25 9 29.25 9 17.4 9 7.5 18.9 7.5 30.9v20.25" stroke="#05141F" stroke-width="2" stroke-linecap="round" stroke-linejoin="round"/><path d="M17.25 30.45H13.2c-.45 0-.9.45-.9.9v1.05c0 .9 1.05.9 2.1 1.05-.45.75-1.05 7.05-1.05 7.05v8.7c0 .9.75 1.5 1.65 1.5h3c.9 0 1.65-.75 1.65-1.5v-3H39v3c0 .9.75 1.5 1.65 1.5h3.15c.9 0 1.65-.75 1.65-1.5v-8.7s-.6-6.3-1.05-7.05c.9-.15 2.1-.15 2.1-1.05v-1.05c0-.45-.45-.9-.9-.9h-4.05" stroke="#05141F" stroke-width="2" stroke-linecap="round" stroke-linejoin="round"/><path d="M41.4 30.3c0 1.65-1.95 2.55-3.9 2.55H21.15c-1.95 0-3.9-.9-3.9-2.55l1.5-5.25c.3-1.5 1.5-2.85 3.45-2.85h14.1c1.95 0 3.15 1.2 3.45 2.85l1.65 5.25zM25.5 42H33M25.5 39H33M41.85 40.65c0 1.2-.9 2.1-2.1 2.1-1.2 0-2.1-.9-2.1-2.1 0-1.2.9-2.1 2.1-2.1 1.05 0 2.1.9 2.1 2.1zM21.15 40.65c0 1.2-.9 2.1-2.1 2.1-1.2 0-2.1-.9-2.1-2.1 0-1.2.9-2.1 2.1-2.1 1.05 0 2.1.9 2.1 2.1zM27.3 25.35h3.9M45.15 46.35h-31.8" stroke="#05141F" stroke-width="2" stroke-linecap="round" stroke-linejoin="round"/></svg><svg fill="none" viewBox="0 0 264 60" id="logo" xmlns="http://www.w3.org/2000/svg"><g clip-path="url(#lclip0_202_34)"><path d="M153.912 53.067c0 .5.132.767.429.767.231 0 .429-.1.66-.234l81.774-51.5c1.452-.933 2.739-1.433 4.719-1.433h17.985c2.772 0 4.62 1.8 4.62 4.5V38.4c0 4-.891 6.333-4.62 8.5l-21.813 12.667c-.264.2-.528.267-.726.267-.264 0-.495-.167-.495-.9V20.1c0-.433-.132-.767-.462-.767-.231 0-.396.1-.627.234L175.56 57.2c-1.683 1.067-3.036 1.367-4.587 1.367h-39.666c-2.739 0-4.62-1.8-4.62-4.467V6.2c0-.333-.165-.633-.429-.633-.231 0-.429.066-.66.2L86.163 28.733c-.396.234-.495.467-.495.634 0 .166.066.3.363.566L114.18 57.2c.363.367.627.667.627.933 0 .3-.396.467-.891.467H88.44c-1.98 0-3.531-.3-4.62-1.333L66.726 40.7c-.198-.2-.33-.267-.495-.267a1.473 1.473 0 00-.56.167L37.124 57.267c-1.716 1-2.904 1.3-4.62 1.3H6.204c-2.772 0-4.62-1.8-4.62-4.467V21.467c0-4.067.891-6.333 4.62-8.5L28.149.2c.231-.133.396-.167.594-.167.297 0 .495.334.495 1.034v43.666c0 .434.132.667.462.667.165 0 .396-.133.627-.267l74.118-43.166c1.749-1.034 2.838-1.334 4.884-1.334h39.897c2.772 0 4.62 1.8 4.62 4.467l.066 47.967z" fill="#05141F"/></g><defs><clipPath id="lclip0_202_34"><path fill="#fff" d="M0 0h264v60H0z"/></clipPath></defs></svg><svg fill="none" viewBox="0 0 89 21" id="logo2" xmlns="http://www.w3.org/2000/svg"><g clip-path="url(#mclip0_0_401)"><path d="M51.887 18.276c0 .169.044.259.145.259a.445.445 0 00.222-.079L79.822 1.094c.49-.314.923-.483 1.59-.483h6.064c.934 0 1.557.607 1.557 1.517v11.204c0 1.348-.3 2.135-1.557 2.865l-7.354 4.27a.412.412 0 01-.245.09c-.088 0-.166-.056-.166-.303V7.162c0-.146-.045-.258-.156-.258-.078 0-.134.034-.212.079L59.186 19.67c-.567.36-1.024.46-1.546.46H44.266c-.923 0-1.557-.607-1.557-1.505V2.476c0-.112-.056-.213-.145-.213a.426.426 0 00-.222.067l-13.295 7.743c-.133.079-.166.157-.166.213 0 .056.022.101.122.191l9.49 9.193c.122.123.21.224.21.314 0 .101-.133.157-.3.157h-8.588c-.668 0-1.19-.1-1.558-.449l-5.762-5.585c-.067-.067-.111-.09-.167-.09a.495.495 0 00-.19.056l-9.622 5.619c-.579.337-.98.438-1.558.438H2.091c-.934 0-1.557-.607-1.557-1.505V7.623c0-1.37.3-2.135 1.557-2.865L9.49.454a.363.363 0 01.2-.057c.1 0 .167.113.167.349v14.72c0 .147.044.226.155.226.056 0 .134-.046.212-.09L35.21 1.049c.59-.348.956-.45 1.646-.45h13.45c.935 0 1.558.608 1.558 1.507l.022 16.17z" fill="#fff"/></g><defs><clipPath id="mclip0_0_401"><path fill="#fff" transform="translate(0 .386)" d="M0 0h89v20.227H0z"/></clipPath></defs></svg><svg fill="none" viewBox="0 0 22 21" id="s-next" xmlns="http://www.w3.org/2000/svg"><path d="M1 10.5h20M11 20l10-9.5L11 1" stroke="#fff" stroke-width="2" stroke-linecap="round" stroke-linejoin="round"/></svg><svg fill="none" viewBox="0 0 22 21" id="s-prev" xmlns="http://www.w3.org/2000/svg"><path d="M21 10.5H1M11 20L1 10.5 11 1" stroke="#fff" stroke-width="2" stroke-linecap="round" stroke-linejoin="round"/></svg><svg fill="none" viewBox="0 0 28 29" id="star" xmlns="http://www.w3.org/2000/svg"><path d="M20.54 27.702a2.588 2.588 0 01-1.218-.32l-4.871-2.71a1.125 1.125 0 00-1.08 0l-4.842 2.71a2.466 2.466 0 01-2.68-.152 2.36 2.36 0 01-.883-1.08 2.588 2.588 0 01-.182-1.401l.974-5.983a1.066 1.066 0 000-.533.898.898 0 00-.274-.441l-4.232-4.309a2.39 2.39 0 01-.655-1.218 2.466 2.466 0 010-1.37c.165-.444.456-.83.837-1.111.357-.299.789-.494 1.249-.563L8.3 8.353c.197-.02.385-.087.548-.198a1.08 1.08 0 00.38-.441l2.437-5.237c.207-.438.534-.807.944-1.066.389-.257.842-.4 1.309-.411.48 0 .95.137 1.355.396.408.255.732.626.928 1.065l2.451 5.237c.077.167.191.313.335.427.15.107.321.18.503.213l5.632.868c.475.058.921.26 1.28.578.36.294.63.685.775 1.127a2.542 2.542 0 01-.578 2.588l-4.217 4.308a1.34 1.34 0 00-.274.441 1.263 1.263 0 000 .533l.944 5.968c.075.473.017.958-.168 1.4-.183.439-.49.814-.883 1.081-.426.305-.937.47-1.461.472v0z" stroke="#fff"/></svg></svg>